<?xml version="1.0" encoding="UTF-8"?>
<svg width="5011px" height="980px" viewBox="0 0 5011 980" version="1.1" xmlns="http://www.w3.org/2000/svg" xmlns:xlink="http://www.w3.org/1999/xlink">
    <title>编组 3</title>
    <defs>
        <polygon id="path-1" points="0.06 0.69 1652.7 0.69 1652.7 1.69 0.06 1.69"></polygon>
        <polygon id="path-3" points="0.06 0.69 1652.7 0.69 1652.7 1.69 0.06 1.69"></polygon>
        <polygon id="path-5" points="0.06 0.69 1652.7 0.69 1652.7 1.69 0.06 1.69"></polygon>
    </defs>
    <g id="页面-1" stroke="none" stroke-width="1" fill="none" fill-rule="evenodd">
        <g id="画板" transform="translate(-36.000000, -506.000000)">
            <g id="编组-3" transform="translate(36.000000, 510.000000)">
                <g id="卡通房子备份" transform="translate(1679.000000, 0.000000)">
                    <path d="M1223.11,604.733 C1136.42,604.733 1065.94,674.454 1064.06,761.18 L1382.16,761.18 C1380.28,674.454 1309.79,604.733 1223.11,604.733" id="Fill-1" fill="#428754"></path>
                    <path d="M1223.11,604.733 C1136.42,604.733 1065.94,674.454 1064.06,761.18 L1382.16,761.18 C1380.28,674.454 1309.79,604.733 1223.11,604.733 Z" id="Stroke-2" stroke="#363736" stroke-width="8.74"></path>
                    <path d="M1213.27,648.432 C1149.57,648.432 1097.78,698.29 1096.4,760.3 L1330.14,760.3 C1328.76,698.29 1276.96,648.432 1213.27,648.432" id="Fill-4" fill="#3B7144"></path>
                    <path d="M1213.27,648.432 C1149.57,648.432 1097.78,698.29 1096.4,760.3 L1330.14,760.3 C1328.76,698.29 1276.96,648.432 1213.27,648.432 Z" id="Stroke-5" stroke="#363736" stroke-width="8.844"></path>
                    <path d="M1188.7,690.38 C1135.16,690.38 1091.63,722.13 1090.47,761.61 L1286.92,761.61 C1285.76,722.13 1242.23,690.38 1188.7,690.38" id="Fill-7" fill="#2C4E2E"></path>
                    <path d="M1188.7,690.38 C1135.16,690.38 1091.63,722.13 1090.47,761.61 L1286.92,761.61 C1285.76,722.13 1242.23,690.38 1188.7,690.38 Z" id="Stroke-8" stroke="#363736" stroke-width="8.387"></path>
                    <path d="M387.596,61.99 L263.49,61.99 C257.722,61.99 253.002,66.709 253.002,72.477 L253.002,257.762 C253.002,263.53 257.722,268.25 263.49,268.25 L387.596,268.25 C393.364,268.25 398.084,263.53 398.084,257.762 L398.084,72.477 C398.084,66.709 393.364,61.99 387.596,61.99" id="Fill-10" fill="#765835"></path>
                    <path d="M387.596,61.99 L263.49,61.99 C257.722,61.99 253.002,66.709 253.002,72.477 L253.002,257.762 C253.002,263.53 257.722,268.25 263.49,268.25 L387.596,268.25 C393.364,268.25 398.084,263.53 398.084,257.762 L398.084,72.477 C398.084,66.709 393.364,61.99 387.596,61.99 Z" id="Stroke-11" stroke="#232423" stroke-width="8.74"></path>
                    <path d="M354.384,242.03 L354.384,66.36 L266.986,66.36 C261.217,66.36 256.498,71.079 256.498,76.848 L256.498,252.518 L343.897,252.518 C349.665,252.518 354.384,247.799 354.384,242.03" id="Fill-12" fill="#A57351"></path>
                    <line x1="251.511" y1="195.885" x2="396.877" y2="195.885" id="Fill-13" fill="#765835"></line>
                    <line x1="251.511" y1="195.885" x2="396.877" y2="195.885" id="Stroke-14" stroke="#232423" stroke-width="8.74"></line>
                    <polyline id="Fill-15" fill="#32C5FF" points="1233.61 760.3 239.018 760.3 239.018 282.234 728.449 48.006 1233.61 282.234 1233.61 760.3"></polyline>
                    <polygon id="Stroke-16" stroke="#383938" stroke-width="9.614" points="1233.61 760.3 239.018 760.3 239.018 282.234 728.449 48.006 1233.61 282.234"></polygon>
                    <path d="M988.897,408.088 L900.624,408.088 C891.491,408.088 884.019,400.615 884.019,391.481 C884.019,382.348 891.491,374.876 900.624,374.876 L988.897,374.876 C998.029,374.876 1005.5,382.348 1005.5,391.481 C1005.5,400.615 998.029,408.088 988.897,408.088" id="Fill-18" fill="#7DDAFF"></path>
                    <path d="M426.503,676.4 C387.69,676.4 356.13,711.84 355.288,755.93 L497.717,755.93 C496.876,711.84 465.315,676.4 426.503,676.4" id="Fill-19" fill="#1E99CA"></path>
                    <path d="M327.743,647.558 C276.069,647.558 234.052,695.47 232.931,755.06 L422.555,755.06 C421.434,695.47 379.416,647.558 327.743,647.558" id="Fill-20" fill="#1E99CA"></path>
                    <path d="M773.912,697.38 C736.766,697.38 706.562,723.47 705.756,755.93 L842.067,755.93 C841.261,723.47 811.057,697.38 773.912,697.38" id="Fill-21" fill="#1E99CA"></path>
                    <path d="M897.128,167.742 L808.856,167.742 C799.723,167.742 792.25,160.269 792.25,151.136 C792.25,142.003 799.723,134.53 808.856,134.53 L897.128,134.53 C906.261,134.53 913.733,142.003 913.733,151.136 C913.733,160.269 906.261,167.742 897.128,167.742" id="Fill-22" fill="#7DDAFF"></path>
                    <polygon id="Fill-23" fill="#1E99CA" points="931.214 611.725 1160.2 611.725 1160.2 336.421 931.214 336.421"></polygon>
                    <polygon id="Stroke-24" stroke="#383938" stroke-width="9.614" points="931.214 611.725 1160.2 611.725 1160.2 336.421 931.214 336.421"></polygon>
                    <path d="M1127.86,284.856 L1039.59,284.856 C1030.45,284.856 1022.98,277.383 1022.98,268.25 C1022.98,259.117 1030.45,251.644 1039.59,251.644 L1127.86,251.644 C1136.99,251.644 1144.47,259.117 1144.47,268.25 C1144.47,277.383 1136.99,284.856 1127.86,284.856" id="Fill-25" fill="#7DDAFF"></path>
                    <path d="M732.819,60.242 L724.683,63.738 L242.514,301.433 L242.514,345.31 L716.091,111.85 C721.577,109.146 728.007,109.146 733.493,111.85 L1228.37,357.396 L1228.37,306.705 L732.819,60.242" id="Fill-26" fill="#1E99CA"></path>
                    <path d="M1285.11,273.531 L731.893,0.811 L731.675,0.811 L178.459,273.531 C168.711,278.336 164.705,290.133 169.51,299.881 C174.315,309.628 186.113,313.635 195.86,308.829 L723.084,48.923 C728.569,46.219 735,46.219 740.485,48.923 L1267.71,308.829 C1277.46,313.635 1289.25,309.628 1294.06,299.881 C1298.86,290.133 1294.86,278.336 1285.11,273.531" id="Fill-27" fill="#44D7B6"></path>
                    <path d="M1285.11,273.531 L731.893,0.811 L731.675,0.811 L178.459,273.531 C168.711,278.336 164.705,290.133 169.51,299.881 C174.315,309.628 186.113,313.635 195.86,308.829 L723.084,48.923 C728.569,46.219 735,46.219 740.485,48.923 L1267.71,308.829 C1277.46,313.635 1289.25,309.628 1294.06,299.881 C1298.86,290.133 1294.86,278.336 1285.11,273.531 Z" id="Stroke-28" stroke="#383938" stroke-width="8.74"></path>
                    <path d="M1285.11,311.986 L731.893,39.266 L731.675,39.266 L178.459,311.986 C168.711,316.791 164.705,328.589 169.51,338.336 C174.315,348.084 186.113,352.09 195.86,347.285 L723.084,87.379 C728.569,84.675 735,84.675 740.485,87.379 L1267.71,347.285 C1277.46,352.09 1289.25,348.084 1294.06,338.336 C1298.86,328.589 1294.86,316.791 1285.11,311.986" id="Fill-29" fill="#B2B3B1"></path>
                    <path d="M1285.11,311.986 L731.893,39.266 L731.675,39.266 L178.459,311.986 C168.711,316.791 164.705,328.589 169.51,338.336 C174.315,348.084 186.113,352.09 195.86,347.285 L723.084,87.379 C728.569,84.675 735,84.675 740.485,87.379 L1267.71,347.285 C1277.46,352.09 1289.25,348.084 1294.06,338.336 C1298.86,328.589 1294.86,316.791 1285.11,311.986 Z" id="Stroke-30" stroke="#383938" stroke-width="9.614"></path>
                    <polygon id="Fill-31" fill="#F3D988" points="1134.85 608.229 1235.36 608.229 1235.36 578.515 1134.85 578.515"></polygon>
                    <polygon id="Stroke-32" stroke="#383938" stroke-width="8.74" points="1134.85 608.229 1235.36 608.229 1235.36 578.515 1134.85 578.515"></polygon>
                    <polygon id="Fill-33" fill="#F3D988" points="859.547 607.355 953.063 607.355 953.063 577.64 859.547 577.64"></polygon>
                    <polygon id="Stroke-34" stroke="#383938" stroke-width="8.74" points="859.547 607.355 953.063 607.355 953.063 577.64 859.547 577.64"></polygon>
                    <polyline id="Fill-35" fill="#C2C3C0" points="1066.38 367.01 954.811 367.01 954.811 618.718 1135.73 618.718 1135.73 367.01 1066.38 367.01"></polyline>
                    <polygon id="Stroke-36" stroke="#383938" stroke-width="8.74" points="1066.38 367.01 954.811 367.01 954.811 618.718 1135.73 618.718 1135.73 367.01"></polygon>
                    <polyline id="Fill-37" fill="#E1E0DC" points="1050.99 373.128 960.929 373.128 960.929 487.93 1072.5 373.128 1050.99 373.128"></polyline>
                    <polyline id="Fill-38" fill="#3D2F21" points="904.994 605.607 904.994 759.43 863.043 759.43 863.043 760.3 946.071 760.3 946.071 605.607 904.994 605.607"></polyline>
                    <polygon id="Stroke-39" stroke="#383938" stroke-width="8.74" points="904.994 605.607 904.994 759.43 863.043 759.43 863.043 760.3 946.071 760.3 946.071 605.607"></polygon>
                    <polygon id="Fill-41" fill="#A5755C" points="863.043 759.43 904.994 759.43 904.994 605.607 863.043 605.607"></polygon>
                    <polygon id="Stroke-42" stroke="#383938" stroke-width="8.74" points="863.043 759.43 904.994 759.43 904.994 605.607 863.043 605.607"></polygon>
                    <polygon id="Fill-44" fill="#3D2F21" points="1145.34 760.3 1228.37 760.3 1228.37 605.607 1145.34 605.607"></polygon>
                    <polygon id="Stroke-45" stroke="#383938" stroke-width="8.74" points="1145.34 760.3 1228.37 760.3 1228.37 605.607 1145.34 605.607"></polygon>
                    <polygon id="Fill-47" fill="#866249" points="1146.21 760.3 1188.17 760.3 1188.17 606.481 1146.21 606.481"></polygon>
                    <polygon id="Stroke-48" stroke="#383938" stroke-width="8.74" points="1146.21 760.3 1188.17 760.3 1188.17 606.481 1146.21 606.481"></polygon>
                    <polygon id="Fill-50" fill="#959897" points="947.819 641.441 1145.34 641.441 1145.34 611.725 947.819 611.725"></polygon>
                    <polygon id="Stroke-51" stroke="#383938" stroke-width="8.74" points="947.819 641.441 1145.34 641.441 1145.34 611.725 947.819 611.725"></polygon>
                    <polygon id="Fill-52" fill="#747474" points="940.827 671.156 1152.33 671.156 1152.33 641.441 940.827 641.441"></polygon>
                    <polygon id="Stroke-53" stroke="#383938" stroke-width="8.74" points="940.827 671.156 1152.33 671.156 1152.33 641.441 940.827 641.441"></polygon>
                    <polygon id="Fill-54" fill="#5B5C5B" points="932.961 700.87 1156.7 700.87 1156.7 671.156 932.961 671.156"></polygon>
                    <polygon id="Stroke-55" stroke="#383938" stroke-width="8.74" points="932.961 700.87 1156.7 700.87 1156.7 671.156 932.961 671.156"></polygon>
                    <path d="M370.116,514.714 L281.843,514.714 C272.711,514.714 265.238,507.241 265.238,498.107 C265.238,488.974 272.711,481.502 281.843,481.502 L370.116,481.502 C379.249,481.502 386.722,488.974 386.722,498.107 C386.722,507.241 379.249,514.714 370.116,514.714" id="Fill-56" fill="#7DDAFF"></path>
                    <polygon id="Fill-57" fill="#4A4B49" points="928.592 730.59 1164.57 730.59 1164.57 700.87 928.592 700.87"></polygon>
                    <polygon id="Stroke-58" stroke="#383938" stroke-width="8.74" points="928.592 730.59 1164.57 730.59 1164.57 700.87 928.592 700.87"></polygon>
                    <path d="M446.152,559.286 L446.152,330.303 L554.628,330.303 C570.018,330.303 582.494,342.778 582.494,358.168 L582.494,559.286 L446.152,559.286 Z" id="Fill-60" fill="#1E99CA"></path>
                    <polygon id="Fill-61" fill="#3E3F3E" points="918.978 760.3 1174.18 760.3 1174.18 730.59 918.978 730.59"></polygon>
                    <polygon id="Stroke-62" stroke="#383938" stroke-width="8.74" points="918.978 760.3 1174.18 760.3 1174.18 730.59 918.978 730.59"></polygon>
                    <path d="M536.391,554.698 L316.148,554.698 L316.148,373.295 C316.148,351.844 333.537,334.454 354.988,334.454 L497.551,334.454 C519.002,334.454 536.391,351.844 536.391,373.295 L536.391,554.698" id="Fill-64" fill="#FFFFFE"></path>
                    <path d="M536.391,554.698 L316.148,554.698 L316.148,373.295 C316.148,351.844 333.537,334.454 354.988,334.454 L497.551,334.454 C519.002,334.454 536.391,351.844 536.391,373.295 L536.391,554.698 Z" id="Stroke-65" stroke="#383938" stroke-width="8.74"></path>
                    <polygon id="Fill-66" fill="#1E99CA" points="347.392 559.286 610.461 559.286 610.461 524.327 347.392 524.327"></polygon>
                    <polygon id="Fill-67" fill="#FFFFFE" points="294.953 554.917 558.023 554.917 558.023 528.697 294.953 528.697"></polygon>
                    <polygon id="Stroke-68" stroke="#383938" stroke-width="8.74" points="294.953 554.917 558.023 554.917 558.023 528.697 294.953 528.697"></polygon>
                    <path d="M718.836,440.425 L630.563,440.425 C621.43,440.425 613.958,432.952 613.958,423.819 C613.958,414.685 621.43,407.214 630.563,407.214 L718.836,407.214 C727.968,407.214 735.441,414.685 735.441,423.819 C735.441,432.952 727.968,440.425 718.836,440.425" id="Fill-69" fill="#7DDAFF"></path>
                    <path d="M592.982,677.274 L504.71,677.274 C495.576,677.274 488.104,669.802 488.104,660.669 C488.104,651.535 495.576,644.063 504.71,644.063 L592.982,644.063 C602.115,644.063 609.587,651.535 609.587,660.669 C609.587,669.802 602.115,677.274 592.982,677.274" id="Fill-70" fill="#7DDAFF"></path>
                    <path d="M579.555,711.94 L564.681,711.94 C567.409,706.54 569.24,700.53 571.909,695.07 C573.327,692.18 574.977,689.38 576.405,686.52 C577.878,683.561 578.846,680.371 580.325,677.413 C581.119,675.826 582.359,674.045 582.738,672.357 C580.629,671.755 577.984,671.799 575.796,671.938 C569.781,672.321 564.481,676.52 562.4,682.201 C561.412,684.9 561.444,688.04 559.679,690.31 C558.522,691.79 555.621,693.87 553.61,693.85 C552.675,693.83 551.847,693.17 551.381,692.36 C550.143,690.2 550.303,687.29 550.416,684.92 C550.658,679.833 550.901,674.75 551.143,669.667 C551.349,665.359 550.967,660.557 552.626,656.492 C554.035,653.039 556.833,650.312 558.369,646.914 C554.992,647.984 551.643,649.033 548.37,650.394 C544.587,651.967 541.179,653.756 539.154,657.487 C534.486,666.093 539.743,676.186 535.586,684.6 C533.004,681.701 531.791,678.304 528.225,676.166 C523.402,673.275 517.468,672.805 512.065,673.882 C508.912,674.511 505.805,675.431 502.602,675.709 C504.043,676.831 505.3,678.174 506.745,679.28 C509.312,681.244 511.834,683.268 514.378,685.26 C515.061,685.8 515.75,686.34 516.302,687.01 C516.866,687.69 517.271,688.49 517.67,689.28 C518.479,690.88 519.288,692.49 520.097,694.09 C522.772,699.38 522.847,705.93 523.32,711.94 L507.428,711.94 C504.669,711.94 502.781,714.72 503.806,717.29 L508.659,729.41 L515.348,729.41 L521.331,756.51 L566.778,756.51 L572.272,729.41 L577.703,729.41 L583.11,717.44 C584.275,714.86 582.388,711.94 579.555,711.94" id="Fill-71" fill="#1E99CA"></path>
                    <path d="M864.791,544.429 L776.518,544.429 C767.385,544.429 759.913,536.956 759.913,527.823 C759.913,518.69 767.385,511.218 776.518,511.218 L864.791,511.218 C873.924,511.218 881.397,518.69 881.397,527.823 C881.397,536.956 873.924,544.429 864.791,544.429" id="Fill-72" fill="#7DDAFF"></path>
                    <polygon id="Fill-73" fill="#1E99CA" points="709.886 561.034 846.228 561.034 846.228 332.051 709.886 332.051"></polygon>
                    <polygon id="Fill-74" fill="#FFFFFE" points="669.018 556.665 805.36 556.665 805.36 336.421 669.018 336.421"></polygon>
                    <polygon id="Stroke-75" stroke="#383938" stroke-width="8.74" points="669.018 556.665 805.36 556.665 805.36 336.421 669.018 336.421"></polygon>
                    <polygon id="Fill-76" fill="#5E9DC9" points="693.037 531.617 781.341 531.617 781.341 359.72 693.037 359.72"></polygon>
                    <polygon id="Stroke-77" stroke="#383938" stroke-width="7.921" points="693.037 531.617 781.341 531.617 781.341 359.72 693.037 359.72"></polygon>
                    <polyline id="Fill-78" fill="#83BDDC" points="696.975 363.607 696.975 453.387 777.875 363.607 696.975 363.607"></polyline>
                    <polyline id="Fill-79" fill="#418EC0" points="776.679 438.708 696.975 527.16 776.679 527.16 776.679 438.708"></polyline>
                    <path d="M264.297,644.937 C205.963,644.937 158.529,696.35 157.264,760.3 L371.33,760.3 C370.064,696.35 322.63,644.937 264.297,644.937" id="Fill-80" fill="#428754"></path>
                    <path d="M264.297,644.937 C205.963,644.937 158.529,696.35 157.264,760.3 L371.33,760.3 C370.064,696.35 322.63,644.937 264.297,644.937 Z" id="Stroke-81" stroke="#363736" stroke-width="8.74"></path>
                    <path d="M270.497,680.752 C230.493,680.752 197.965,716.01 197.097,759.87 L343.897,759.87 C343.028,716.01 310.5,680.752 270.497,680.752" id="Fill-83" fill="#D7BD5B"></path>
                    <path d="M270.497,680.752 C230.493,680.752 197.965,716.01 197.097,759.87 L343.897,759.87 C343.028,716.01 310.5,680.752 270.497,680.752 Z" id="Stroke-84" stroke="#363736" stroke-width="8.74"></path>
                    <path d="M394.166,679.896 C355.353,679.896 323.793,715.34 322.951,759.43 L465.38,759.43 C464.538,715.34 432.978,679.896 394.166,679.896" id="Fill-86" fill="#46AA68"></path>
                    <path d="M394.166,679.896 C355.353,679.896 323.793,715.34 322.951,759.43 L465.38,759.43 C464.538,715.34 432.978,679.896 394.166,679.896 Z" id="Stroke-87" stroke="#363736" stroke-width="8.74"></path>
                    <path d="M1369.53,719.23 C1396.67,719.23 1420.26,736.56 1432.28,762.05 L1448.61,762.05 C1447.77,717.96 1416.21,682.518 1377.4,682.518 C1338.59,682.518 1307.02,717.96 1306.18,762.05 L1306.78,762.05 C1318.8,736.56 1342.39,719.23 1369.53,719.23" id="Fill-89" fill="#46AA68"></path>
                    <path d="M1369.53,719.23 C1396.67,719.23 1420.26,736.56 1432.28,762.05 L1448.61,762.05 C1447.77,717.96 1416.21,682.518 1377.4,682.518 C1338.59,682.518 1307.02,717.96 1306.18,762.05 L1306.78,762.05 C1318.8,736.56 1342.39,719.23 1369.53,719.23 Z" id="Stroke-90" stroke="#363736" stroke-width="8.74"></path>
                    <path d="M1369.53,719.23 C1342.39,719.23 1318.8,736.56 1306.78,762.05 L1432.28,762.05 C1420.26,736.56 1396.67,719.23 1369.53,719.23" id="Fill-92" fill="#D7BD5B"></path>
                    <path d="M1369.53,719.23 C1342.39,719.23 1318.8,736.56 1306.78,762.05 L1432.28,762.05 C1420.26,736.56 1396.67,719.23 1369.53,719.23 Z" id="Stroke-93" stroke="#363736" stroke-width="8.74"></path>
                    <path d="M757.183,692.13 C723.915,692.13 696.864,722.51 696.142,760.3 L818.224,760.3 C817.503,722.51 790.451,692.13 757.183,692.13" id="Fill-95" fill="#46AA68"></path>
                    <path d="M757.183,692.13 C723.915,692.13 696.864,722.51 696.142,760.3 L818.224,760.3 C817.503,722.51 790.451,692.13 757.183,692.13 Z" id="Stroke-96" stroke="#363736" stroke-width="8.74"></path>
                    <path d="M304.682,702.62 C276.533,702.62 253.643,728.33 253.032,760.3 L356.333,760.3 C355.722,728.33 332.832,702.62 304.682,702.62" id="Fill-98" fill="#6CBB7F"></path>
                    <path d="M304.682,702.62 C276.533,702.62 253.643,728.33 253.032,760.3 L356.333,760.3 C355.722,728.33 332.832,702.62 304.682,702.62 Z" id="Stroke-99" stroke="#363736" stroke-width="8.74"></path>
                    <path d="M534.862,315.008 L446.589,315.008 C437.456,315.008 429.984,307.535 429.984,298.402 C429.984,289.269 437.456,281.797 446.589,281.797 L534.862,281.797 C543.995,281.797 551.467,289.269 551.467,298.402 C551.467,307.535 543.995,315.008 534.862,315.008" id="Fill-101" fill="#7DDAFF"></path>
                    <path d="M699.608,248.148 L611.336,248.148 C602.202,248.148 594.73,240.676 594.73,231.543 L594.73,231.542 C594.73,222.41 602.202,214.937 611.336,214.937 L699.608,214.937 C708.741,214.937 716.213,222.41 716.213,231.542 L716.213,231.543 C716.213,240.676 708.741,248.148 699.608,248.148" id="Fill-102" fill="#7DDAFF"></path>
                    <path d="M1003.99,501.603 L985.165,501.603 C978.565,501.603 973.165,496.204 973.165,489.603 L973.165,486.51 C973.165,479.91 978.565,474.51 985.165,474.51 L1003.99,474.51 C1010.59,474.51 1015.99,479.91 1015.99,486.51 L1015.99,489.603 C1015.99,496.204 1010.59,501.603 1003.99,501.603" id="Fill-103" fill="#7E7F7F"></path>
                    <path d="M1003.99,501.603 L985.165,501.603 C978.565,501.603 973.165,496.204 973.165,489.603 L973.165,486.51 C973.165,479.91 978.565,474.51 985.165,474.51 L1003.99,474.51 C1010.59,474.51 1015.99,479.91 1015.99,486.51 L1015.99,489.603 C1015.99,496.204 1010.59,501.603 1003.99,501.603 Z" id="Stroke-104" stroke="#383938" stroke-width="9.543"></path>
                    <path d="M1040.96,496.924 L1000.64,499.855 C995.801,499.855 991.843,495.897 991.843,491.059 L991.843,485.929 C991.843,481.091 995.801,477.132 1000.64,477.132 L1040.96,479.331 C1045.79,479.331 1049.75,483.289 1049.75,488.127 C1049.75,492.966 1045.79,496.924 1040.96,496.924" id="Fill-105" fill="#E5E4DF"></path>
                    <path d="M1040.96,496.924 L1000.64,499.855 C995.801,499.855 991.843,495.897 991.843,491.059 L991.843,485.929 C991.843,481.091 995.801,477.132 1000.64,477.132 L1040.96,479.331 C1045.79,479.331 1049.75,483.289 1049.75,488.127 C1049.75,492.966 1045.79,496.924 1040.96,496.924 Z" id="Stroke-106" stroke="#383938" stroke-width="7.33"></path>
                    <polyline id="Fill-107" fill="#1E99CA" points="1164.57 332.925 1229.24 574.144 1164.57 574.144 1164.57 332.925"></polyline>
                    <path d="M508.149,370.373 C504.796,364.329 498.353,360.236 490.952,360.236 L361.586,360.236 C350.731,360.236 341.93,369.037 341.93,379.893 L341.93,528.916 L510.609,528.916 L510.609,379.893 C510.609,376.438 509.714,373.193 508.149,370.373" id="Fill-108" fill="#5E9DC9"></path>
                    <path d="M508.149,370.373 C504.796,364.329 498.353,360.236 490.952,360.236 L361.586,360.236 C350.731,360.236 341.93,369.037 341.93,379.893 L341.93,528.916 L510.609,528.916 L510.609,379.893 C510.609,376.438 509.714,373.193 508.149,370.373 Z" id="Stroke-109" stroke="#383938" stroke-width="8.74"></path>
                    <polyline id="Fill-110" fill="#EEA4A3" points="497.934 726.19 504.726 756.95 550.173 756.95 556.145 727.49 497.934 726.19"></polyline>
                    <polygon id="Stroke-111" stroke="#383938" stroke-width="4.37" points="497.934 726.19 504.726 756.95 550.173 756.95 556.145 727.49"></polygon>
                    <polyline id="Fill-113" fill="#C07C7E" points="541.433 725.04 541.433 725.04 541.287 725.3 535.315 754.76 548.425 754.76 554.397 725.3 541.433 725.04"></polyline>
                    <path d="M488.734,363.216 L364.912,363.216 C354.521,363.216 346.098,371.64 346.098,382.03 L346.098,502.897 L505.195,372.917 C501.985,367.133 495.819,363.216 488.734,363.216" id="Fill-114" fill="#83BDDC"></path>
                    <line x1="252.385" y1="100.621" x2="397.751" y2="100.621" id="Fill-115" fill="#765835"></line>
                    <line x1="252.385" y1="100.621" x2="397.751" y2="100.621" id="Stroke-116" stroke="#232423" stroke-width="8.74"></line>
                    <line x1="253.259" y1="148.253" x2="398.625" y2="148.253" id="Fill-117" fill="#765835"></line>
                    <line x1="253.259" y1="148.253" x2="398.625" y2="148.253" id="Stroke-118" stroke="#232423" stroke-width="8.74"></line>
                    <g id="编组" transform="translate(0.000000, 761.000000)">
                        <mask id="mask-2" fill="white">
                            <use xlink:href="#path-1"></use>
                        </mask>
                        <g id="Clip-120"></g>
                        <line x1="0" y1="1.19" x2="1652.7" y2="1.19" id="Fill-119" fill="#EFB06A" mask="url(#mask-2)"></line>
                        <line x1="0" y1="1.19" x2="1652.7" y2="1.19" id="Stroke-121" stroke="#383938" stroke-width="9.614" mask="url(#mask-2)"></line>
                    </g>
                    <path d="M490.822,712.37 L562.949,712.37 C565.782,712.37 567.67,715.3 566.504,717.88 L561.098,729.85 L492.053,729.85 L487.201,717.72 C486.176,715.16 488.063,712.37 490.822,712.37" id="Fill-129" fill="#EEA4A3"></path>
                    <path d="M490.822,712.37 L562.949,712.37 C565.782,712.37 567.67,715.3 566.504,717.88 L561.098,729.85 L492.053,729.85 L487.201,717.72 C486.176,715.16 488.063,712.37 490.822,712.37 Z" id="Stroke-130" stroke="#383938" stroke-width="4.37"></path>
                    <path d="M396.15,147.342 L252.346,147.342 C245.746,147.342 240.346,141.942 240.346,135.342 L240.346,104.281 C240.346,97.681 245.746,92.281 252.346,92.281 L396.15,92.281 C402.751,92.281 408.15,97.681 408.15,104.281 L408.15,135.342 C408.15,141.942 402.751,147.342 396.15,147.342" id="Fill-131" fill="#B7B8B6"></path>
                    <path d="M396.15,147.342 L252.346,147.342 C245.746,147.342 240.346,141.942 240.346,135.342 L240.346,104.281 C240.346,97.681 245.746,92.281 252.346,92.281 L396.15,92.281 C402.751,92.281 408.15,97.681 408.15,104.281 L408.15,135.342 C408.15,141.942 402.751,147.342 396.15,147.342 Z" id="Stroke-132" stroke="#232423" stroke-width="8.74"></path>
                    <path d="M506.911,711.06 C506.219,704.49 506.494,696.97 503.492,691.03 C502.683,689.43 501.874,687.83 501.065,686.22 C500.665,685.43 500.26,684.63 499.697,683.95 C499.145,683.279 498.455,682.738 497.772,682.203 C495.229,680.21 492.707,678.185 490.14,676.222 C488.694,675.114 487.437,673.771 485.996,672.65 C489.199,672.373 492.306,671.451 495.459,670.823 C500.863,669.746 506.796,670.216 511.619,673.107 C515.185,675.244 516.398,678.642 518.981,681.539 C523.137,673.128 517.88,663.033 522.548,654.429 C524.573,650.696 527.981,648.908 531.764,647.335 C535.037,645.974 538.386,644.926 541.763,643.855 C540.228,647.254 537.43,649.98 536.021,653.433 C534.361,657.499 534.743,662.301 534.538,666.608 C534.295,671.691 534.053,676.774 533.811,681.857 C533.697,684.24 533.537,687.14 534.775,689.3 C535.241,690.11 536.069,690.78 537.004,690.79 C539.016,690.81 541.916,688.73 543.073,687.25 C544.838,684.98 544.807,681.839 545.794,679.142 C547.876,673.462 553.175,669.263 559.19,668.88 C561.378,668.74 564.024,668.696 566.132,669.299 C565.753,670.986 564.513,672.766 563.72,674.353 C562.24,677.311 561.272,680.503 559.799,683.456 C558.371,686.32 556.721,689.12 555.304,692.01 C552.501,697.74 550.634,704.09 547.669,709.69 C546.848,711.24 546.262,711.06 544.633,711.06 C543.451,711.06 542.269,711.06 541.087,711.06 C534.094,711.06 527.102,711.06 520.109,711.06 C515.71,711.06 511.31,711.06 506.911,711.06" id="Fill-137" fill="#5BB574"></path>
                    <path d="M506.911,711.06 C506.219,704.49 506.494,696.97 503.492,691.03 C502.683,689.43 501.874,687.83 501.065,686.22 C500.665,685.43 500.26,684.63 499.697,683.95 C499.145,683.279 498.455,682.738 497.772,682.203 C495.229,680.21 492.707,678.185 490.14,676.222 C488.694,675.114 487.437,673.771 485.996,672.65 C489.199,672.373 492.306,671.451 495.459,670.823 C500.863,669.746 506.796,670.216 511.619,673.107 C515.185,675.244 516.398,678.642 518.981,681.539 C523.137,673.128 517.88,663.033 522.548,654.429 C524.573,650.696 527.981,648.908 531.764,647.335 C535.037,645.974 538.386,644.926 541.763,643.855 C540.228,647.254 537.43,649.98 536.021,653.433 C534.361,657.499 534.743,662.301 534.538,666.608 C534.295,671.691 534.053,676.774 533.811,681.857 C533.697,684.24 533.537,687.14 534.775,689.3 C535.241,690.11 536.069,690.78 537.004,690.79 C539.016,690.81 541.916,688.73 543.073,687.25 C544.838,684.98 544.807,681.839 545.794,679.142 C547.876,673.462 553.175,669.263 559.19,668.88 C561.378,668.74 564.024,668.696 566.132,669.299 C565.753,670.986 564.513,672.766 563.72,674.353 C562.24,677.311 561.272,680.503 559.799,683.456 C558.371,686.32 556.721,689.12 555.304,692.01 C552.501,697.74 550.634,704.09 547.669,709.69 C546.848,711.24 546.262,711.06 544.633,711.06 C543.451,711.06 542.269,711.06 541.087,711.06 C534.094,711.06 527.102,711.06 520.109,711.06 C515.71,711.06 511.31,711.06 506.911,711.06 Z" id="Stroke-138" stroke="#383938" stroke-width="3.496"></path>
                </g>
                <g id="编组-2">
                    <g id="卡通房子">
                        <path d="M1223.11,604.733 C1136.42,604.733 1065.94,674.454 1064.06,761.18 L1382.16,761.18 C1380.28,674.454 1309.79,604.733 1223.11,604.733" id="Fill-1" fill="#428754"></path>
                        <path d="M1223.11,604.733 C1136.42,604.733 1065.94,674.454 1064.06,761.18 L1382.16,761.18 C1380.28,674.454 1309.79,604.733 1223.11,604.733 Z" id="Stroke-2" stroke="#363736" stroke-width="8.74"></path>
                        <path d="M1213.27,648.432 C1149.57,648.432 1097.78,698.29 1096.4,760.3 L1330.14,760.3 C1328.76,698.29 1276.96,648.432 1213.27,648.432" id="Fill-4" fill="#3B7144"></path>
                        <path d="M1213.27,648.432 C1149.57,648.432 1097.78,698.29 1096.4,760.3 L1330.14,760.3 C1328.76,698.29 1276.96,648.432 1213.27,648.432 Z" id="Stroke-5" stroke="#363736" stroke-width="8.844"></path>
                        <path d="M1188.7,690.38 C1135.16,690.38 1091.63,722.13 1090.47,761.61 L1286.92,761.61 C1285.76,722.13 1242.23,690.38 1188.7,690.38" id="Fill-7" fill="#2C4E2E"></path>
                        <path d="M1188.7,690.38 C1135.16,690.38 1091.63,722.13 1090.47,761.61 L1286.92,761.61 C1285.76,722.13 1242.23,690.38 1188.7,690.38 Z" id="Stroke-8" stroke="#363736" stroke-width="8.387"></path>
                        <path d="M387.596,61.99 L263.49,61.99 C257.722,61.99 253.002,66.709 253.002,72.477 L253.002,257.762 C253.002,263.53 257.722,268.25 263.49,268.25 L387.596,268.25 C393.364,268.25 398.084,263.53 398.084,257.762 L398.084,72.477 C398.084,66.709 393.364,61.99 387.596,61.99" id="Fill-10" fill="#765835"></path>
                        <path d="M387.596,61.99 L263.49,61.99 C257.722,61.99 253.002,66.709 253.002,72.477 L253.002,257.762 C253.002,263.53 257.722,268.25 263.49,268.25 L387.596,268.25 C393.364,268.25 398.084,263.53 398.084,257.762 L398.084,72.477 C398.084,66.709 393.364,61.99 387.596,61.99 Z" id="Stroke-11" stroke="#232423" stroke-width="8.74"></path>
                        <path d="M354.384,242.03 L354.384,66.36 L266.986,66.36 C261.217,66.36 256.498,71.079 256.498,76.848 L256.498,252.518 L343.897,252.518 C349.665,252.518 354.384,247.799 354.384,242.03" id="Fill-12" fill="#A57351"></path>
                        <line x1="251.511" y1="195.885" x2="396.877" y2="195.885" id="Fill-13" fill="#765835"></line>
                        <line x1="251.511" y1="195.885" x2="396.877" y2="195.885" id="Stroke-14" stroke="#232423" stroke-width="8.74"></line>
                        <polyline id="Fill-15" fill="#EFB06A" points="1233.61 760.3 239.018 760.3 239.018 282.234 728.449 48.006 1233.61 282.234 1233.61 760.3"></polyline>
                        <polygon id="Stroke-16" stroke="#383938" stroke-width="9.614" points="1233.61 760.3 239.018 760.3 239.018 282.234 728.449 48.006 1233.61 282.234"></polygon>
                        <path d="M988.897,408.088 L900.624,408.088 C891.491,408.088 884.019,400.615 884.019,391.481 C884.019,382.348 891.491,374.876 900.624,374.876 L988.897,374.876 C998.029,374.876 1005.5,382.348 1005.5,391.481 C1005.5,400.615 998.029,408.088 988.897,408.088" id="Fill-18" fill="#F3CD86"></path>
                        <path d="M426.503,676.4 C387.69,676.4 356.13,711.84 355.288,755.93 L497.717,755.93 C496.876,711.84 465.315,676.4 426.503,676.4" id="Fill-19" fill="#BE8244"></path>
                        <path d="M327.743,647.558 C276.069,647.558 234.052,695.47 232.931,755.06 L422.555,755.06 C421.434,695.47 379.416,647.558 327.743,647.558" id="Fill-20" fill="#BE8244"></path>
                        <path d="M773.912,697.38 C736.766,697.38 706.562,723.47 705.756,755.93 L842.067,755.93 C841.261,723.47 811.057,697.38 773.912,697.38" id="Fill-21" fill="#BE8244"></path>
                        <path d="M897.128,167.742 L808.856,167.742 C799.723,167.742 792.25,160.269 792.25,151.136 C792.25,142.003 799.723,134.53 808.856,134.53 L897.128,134.53 C906.261,134.53 913.733,142.003 913.733,151.136 C913.733,160.269 906.261,167.742 897.128,167.742" id="Fill-22" fill="#F3CD86"></path>
                        <polygon id="Fill-23" fill="#C77835" points="931.214 611.725 1160.2 611.725 1160.2 336.421 931.214 336.421"></polygon>
                        <polygon id="Stroke-24" stroke="#383938" stroke-width="9.614" points="931.214 611.725 1160.2 611.725 1160.2 336.421 931.214 336.421"></polygon>
                        <path d="M1127.86,284.856 L1039.59,284.856 C1030.45,284.856 1022.98,277.383 1022.98,268.25 C1022.98,259.117 1030.45,251.644 1039.59,251.644 L1127.86,251.644 C1136.99,251.644 1144.47,259.117 1144.47,268.25 C1144.47,277.383 1136.99,284.856 1127.86,284.856" id="Fill-25" fill="#F3CD86"></path>
                        <path d="M732.819,60.242 L724.683,63.738 L242.514,301.433 L242.514,345.31 L716.091,111.85 C721.577,109.146 728.007,109.146 733.493,111.85 L1228.37,357.396 L1228.37,306.705 L732.819,60.242" id="Fill-26" fill="#BE8244"></path>
                        <path d="M1285.11,273.531 L731.893,0.811 L731.675,0.811 L178.459,273.531 C168.711,278.336 164.705,290.133 169.51,299.881 C174.315,309.628 186.113,313.635 195.86,308.829 L723.084,48.923 C728.569,46.219 735,46.219 740.485,48.923 L1267.71,308.829 C1277.46,313.635 1289.25,309.628 1294.06,299.881 C1298.86,290.133 1294.86,278.336 1285.11,273.531" id="Fill-27" fill="#E16566"></path>
                        <path d="M1285.11,273.531 L731.893,0.811 L731.675,0.811 L178.459,273.531 C168.711,278.336 164.705,290.133 169.51,299.881 C174.315,309.628 186.113,313.635 195.86,308.829 L723.084,48.923 C728.569,46.219 735,46.219 740.485,48.923 L1267.71,308.829 C1277.46,313.635 1289.25,309.628 1294.06,299.881 C1298.86,290.133 1294.86,278.336 1285.11,273.531 Z" id="Stroke-28" stroke="#383938" stroke-width="8.74"></path>
                        <path d="M1285.11,311.986 L731.893,39.266 L731.675,39.266 L178.459,311.986 C168.711,316.791 164.705,328.589 169.51,338.336 C174.315,348.084 186.113,352.09 195.86,347.285 L723.084,87.379 C728.569,84.675 735,84.675 740.485,87.379 L1267.71,347.285 C1277.46,352.09 1289.25,348.084 1294.06,338.336 C1298.86,328.589 1294.86,316.791 1285.11,311.986" id="Fill-29" fill="#B2B3B1"></path>
                        <path d="M1285.11,311.986 L731.893,39.266 L731.675,39.266 L178.459,311.986 C168.711,316.791 164.705,328.589 169.51,338.336 C174.315,348.084 186.113,352.09 195.86,347.285 L723.084,87.379 C728.569,84.675 735,84.675 740.485,87.379 L1267.71,347.285 C1277.46,352.09 1289.25,348.084 1294.06,338.336 C1298.86,328.589 1294.86,316.791 1285.11,311.986 Z" id="Stroke-30" stroke="#383938" stroke-width="9.614"></path>
                        <polygon id="Fill-31" fill="#F3D988" points="1134.85 608.229 1235.36 608.229 1235.36 578.515 1134.85 578.515"></polygon>
                        <polygon id="Stroke-32" stroke="#383938" stroke-width="8.74" points="1134.85 608.229 1235.36 608.229 1235.36 578.515 1134.85 578.515"></polygon>
                        <polygon id="Fill-33" fill="#F3D988" points="859.547 607.355 953.063 607.355 953.063 577.64 859.547 577.64"></polygon>
                        <polygon id="Stroke-34" stroke="#383938" stroke-width="8.74" points="859.547 607.355 953.063 607.355 953.063 577.64 859.547 577.64"></polygon>
                        <polyline id="Fill-35" fill="#C2C3C0" points="1066.38 367.01 954.811 367.01 954.811 618.718 1135.73 618.718 1135.73 367.01 1066.38 367.01"></polyline>
                        <polygon id="Stroke-36" stroke="#383938" stroke-width="8.74" points="1066.38 367.01 954.811 367.01 954.811 618.718 1135.73 618.718 1135.73 367.01"></polygon>
                        <polyline id="Fill-37" fill="#E1E0DC" points="1050.99 373.128 960.929 373.128 960.929 487.93 1072.5 373.128 1050.99 373.128"></polyline>
                        <polyline id="Fill-38" fill="#3D2F21" points="904.994 605.607 904.994 759.43 863.043 759.43 863.043 760.3 946.071 760.3 946.071 605.607 904.994 605.607"></polyline>
                        <polygon id="Stroke-39" stroke="#383938" stroke-width="8.74" points="904.994 605.607 904.994 759.43 863.043 759.43 863.043 760.3 946.071 760.3 946.071 605.607"></polygon>
                        <polygon id="Fill-41" fill="#A5755C" points="863.043 759.43 904.994 759.43 904.994 605.607 863.043 605.607"></polygon>
                        <polygon id="Stroke-42" stroke="#383938" stroke-width="8.74" points="863.043 759.43 904.994 759.43 904.994 605.607 863.043 605.607"></polygon>
                        <polygon id="Fill-44" fill="#3D2F21" points="1145.34 760.3 1228.37 760.3 1228.37 605.607 1145.34 605.607"></polygon>
                        <polygon id="Stroke-45" stroke="#383938" stroke-width="8.74" points="1145.34 760.3 1228.37 760.3 1228.37 605.607 1145.34 605.607"></polygon>
                        <polygon id="Fill-47" fill="#866249" points="1146.21 760.3 1188.17 760.3 1188.17 606.481 1146.21 606.481"></polygon>
                        <polygon id="Stroke-48" stroke="#383938" stroke-width="8.74" points="1146.21 760.3 1188.17 760.3 1188.17 606.481 1146.21 606.481"></polygon>
                        <polygon id="Fill-50" fill="#959897" points="947.819 641.441 1145.34 641.441 1145.34 611.725 947.819 611.725"></polygon>
                        <polygon id="Stroke-51" stroke="#383938" stroke-width="8.74" points="947.819 641.441 1145.34 641.441 1145.34 611.725 947.819 611.725"></polygon>
                        <polygon id="Fill-52" fill="#747474" points="940.827 671.156 1152.33 671.156 1152.33 641.441 940.827 641.441"></polygon>
                        <polygon id="Stroke-53" stroke="#383938" stroke-width="8.74" points="940.827 671.156 1152.33 671.156 1152.33 641.441 940.827 641.441"></polygon>
                        <polygon id="Fill-54" fill="#5B5C5B" points="932.961 700.87 1156.7 700.87 1156.7 671.156 932.961 671.156"></polygon>
                        <polygon id="Stroke-55" stroke="#383938" stroke-width="8.74" points="932.961 700.87 1156.7 700.87 1156.7 671.156 932.961 671.156"></polygon>
                        <path d="M370.116,514.714 L281.843,514.714 C272.711,514.714 265.238,507.241 265.238,498.107 C265.238,488.974 272.711,481.502 281.843,481.502 L370.116,481.502 C379.249,481.502 386.722,488.974 386.722,498.107 C386.722,507.241 379.249,514.714 370.116,514.714" id="Fill-56" fill="#F3CD86"></path>
                        <polygon id="Fill-57" fill="#4A4B49" points="928.592 730.59 1164.57 730.59 1164.57 700.87 928.592 700.87"></polygon>
                        <polygon id="Stroke-58" stroke="#383938" stroke-width="8.74" points="928.592 730.59 1164.57 730.59 1164.57 700.87 928.592 700.87"></polygon>
                        <path d="M582.494,559.286 L446.152,559.286 L446.152,330.303 L554.628,330.303 C570.018,330.303 582.494,342.778 582.494,358.168 L582.494,559.286" id="Fill-60" fill="#BE8244"></path>
                        <polygon id="Fill-61" fill="#3E3F3E" points="918.978 760.3 1174.18 760.3 1174.18 730.59 918.978 730.59"></polygon>
                        <polygon id="Stroke-62" stroke="#383938" stroke-width="8.74" points="918.978 760.3 1174.18 760.3 1174.18 730.59 918.978 730.59"></polygon>
                        <path d="M536.391,554.698 L316.148,554.698 L316.148,373.295 C316.148,351.844 333.537,334.454 354.988,334.454 L497.551,334.454 C519.002,334.454 536.391,351.844 536.391,373.295 L536.391,554.698" id="Fill-64" fill="#FFFFFE"></path>
                        <path d="M536.391,554.698 L316.148,554.698 L316.148,373.295 C316.148,351.844 333.537,334.454 354.988,334.454 L497.551,334.454 C519.002,334.454 536.391,351.844 536.391,373.295 L536.391,554.698 Z" id="Stroke-65" stroke="#383938" stroke-width="8.74"></path>
                        <polygon id="Fill-66" fill="#BE8244" points="347.392 559.286 610.461 559.286 610.461 524.327 347.392 524.327"></polygon>
                        <polygon id="Fill-67" fill="#FFFFFE" points="294.953 554.917 558.023 554.917 558.023 528.697 294.953 528.697"></polygon>
                        <polygon id="Stroke-68" stroke="#383938" stroke-width="8.74" points="294.953 554.917 558.023 554.917 558.023 528.697 294.953 528.697"></polygon>
                        <path d="M718.836,440.425 L630.563,440.425 C621.43,440.425 613.958,432.952 613.958,423.819 C613.958,414.685 621.43,407.214 630.563,407.214 L718.836,407.214 C727.968,407.214 735.441,414.685 735.441,423.819 C735.441,432.952 727.968,440.425 718.836,440.425" id="Fill-69" fill="#F3CD86"></path>
                        <path d="M592.982,677.274 L504.71,677.274 C495.576,677.274 488.104,669.802 488.104,660.669 C488.104,651.535 495.576,644.063 504.71,644.063 L592.982,644.063 C602.115,644.063 609.587,651.535 609.587,660.669 C609.587,669.802 602.115,677.274 592.982,677.274" id="Fill-70" fill="#F3CD86"></path>
                        <path d="M579.555,711.94 L564.681,711.94 C567.409,706.54 569.24,700.53 571.909,695.07 C573.327,692.18 574.977,689.38 576.405,686.52 C577.878,683.561 578.846,680.371 580.325,677.413 C581.119,675.826 582.359,674.045 582.738,672.357 C580.629,671.755 577.984,671.799 575.796,671.938 C569.781,672.321 564.481,676.52 562.4,682.201 C561.412,684.9 561.444,688.04 559.679,690.31 C558.522,691.79 555.621,693.87 553.61,693.85 C552.675,693.83 551.847,693.17 551.381,692.36 C550.143,690.2 550.303,687.29 550.416,684.92 C550.658,679.833 550.901,674.75 551.143,669.667 C551.349,665.359 550.967,660.557 552.626,656.492 C554.035,653.039 556.833,650.312 558.369,646.914 C554.992,647.984 551.643,649.033 548.37,650.394 C544.587,651.967 541.179,653.756 539.154,657.487 C534.486,666.093 539.743,676.186 535.586,684.6 C533.004,681.701 531.791,678.304 528.225,676.166 C523.402,673.275 517.468,672.805 512.065,673.882 C508.912,674.511 505.805,675.431 502.602,675.709 C504.043,676.831 505.3,678.174 506.745,679.28 C509.312,681.244 511.834,683.268 514.378,685.26 C515.061,685.8 515.75,686.34 516.302,687.01 C516.866,687.69 517.271,688.49 517.67,689.28 C518.479,690.88 519.288,692.49 520.097,694.09 C522.772,699.38 522.847,705.93 523.32,711.94 L507.428,711.94 C504.669,711.94 502.781,714.72 503.806,717.29 L508.659,729.41 L515.348,729.41 L521.331,756.51 L566.778,756.51 L572.272,729.41 L577.703,729.41 L583.11,717.44 C584.275,714.86 582.388,711.94 579.555,711.94" id="Fill-71" fill="#BE8244"></path>
                        <path d="M864.791,544.429 L776.518,544.429 C767.385,544.429 759.913,536.956 759.913,527.823 C759.913,518.69 767.385,511.218 776.518,511.218 L864.791,511.218 C873.924,511.218 881.397,518.69 881.397,527.823 C881.397,536.956 873.924,544.429 864.791,544.429" id="Fill-72" fill="#F3CD86"></path>
                        <polygon id="Fill-73" fill="#BE8244" points="709.886 561.034 846.228 561.034 846.228 332.051 709.886 332.051"></polygon>
                        <polygon id="Fill-74" fill="#FFFFFE" points="669.018 556.665 805.36 556.665 805.36 336.421 669.018 336.421"></polygon>
                        <polygon id="Stroke-75" stroke="#383938" stroke-width="8.74" points="669.018 556.665 805.36 556.665 805.36 336.421 669.018 336.421"></polygon>
                        <polygon id="Fill-76" fill="#5E9DC9" points="693.037 531.617 781.341 531.617 781.341 359.72 693.037 359.72"></polygon>
                        <polygon id="Stroke-77" stroke="#383938" stroke-width="7.921" points="693.037 531.617 781.341 531.617 781.341 359.72 693.037 359.72"></polygon>
                        <polyline id="Fill-78" fill="#83BDDC" points="696.975 363.607 696.975 453.387 777.875 363.607 696.975 363.607"></polyline>
                        <polyline id="Fill-79" fill="#418EC0" points="776.679 438.708 696.975 527.16 776.679 527.16 776.679 438.708"></polyline>
                        <path d="M264.297,644.937 C205.963,644.937 158.529,696.35 157.264,760.3 L371.33,760.3 C370.064,696.35 322.63,644.937 264.297,644.937" id="Fill-80" fill="#428754"></path>
                        <path d="M264.297,644.937 C205.963,644.937 158.529,696.35 157.264,760.3 L371.33,760.3 C370.064,696.35 322.63,644.937 264.297,644.937 Z" id="Stroke-81" stroke="#363736" stroke-width="8.74"></path>
                        <path d="M270.497,680.752 C230.493,680.752 197.965,716.01 197.097,759.87 L343.897,759.87 C343.028,716.01 310.5,680.752 270.497,680.752" id="Fill-83" fill="#D7BD5B"></path>
                        <path d="M270.497,680.752 C230.493,680.752 197.965,716.01 197.097,759.87 L343.897,759.87 C343.028,716.01 310.5,680.752 270.497,680.752 Z" id="Stroke-84" stroke="#363736" stroke-width="8.74"></path>
                        <path d="M394.166,679.896 C355.353,679.896 323.793,715.34 322.951,759.43 L465.38,759.43 C464.538,715.34 432.978,679.896 394.166,679.896" id="Fill-86" fill="#46AA68"></path>
                        <path d="M394.166,679.896 C355.353,679.896 323.793,715.34 322.951,759.43 L465.38,759.43 C464.538,715.34 432.978,679.896 394.166,679.896 Z" id="Stroke-87" stroke="#363736" stroke-width="8.74"></path>
                        <path d="M1369.53,719.23 C1396.67,719.23 1420.26,736.56 1432.28,762.05 L1448.61,762.05 C1447.77,717.96 1416.21,682.518 1377.4,682.518 C1338.59,682.518 1307.02,717.96 1306.18,762.05 L1306.78,762.05 C1318.8,736.56 1342.39,719.23 1369.53,719.23" id="Fill-89" fill="#46AA68"></path>
                        <path d="M1369.53,719.23 C1396.67,719.23 1420.26,736.56 1432.28,762.05 L1448.61,762.05 C1447.77,717.96 1416.21,682.518 1377.4,682.518 C1338.59,682.518 1307.02,717.96 1306.18,762.05 L1306.78,762.05 C1318.8,736.56 1342.39,719.23 1369.53,719.23 Z" id="Stroke-90" stroke="#363736" stroke-width="8.74"></path>
                        <path d="M1369.53,719.23 C1342.39,719.23 1318.8,736.56 1306.78,762.05 L1432.28,762.05 C1420.26,736.56 1396.67,719.23 1369.53,719.23" id="Fill-92" fill="#D7BD5B"></path>
                        <path d="M1369.53,719.23 C1342.39,719.23 1318.8,736.56 1306.78,762.05 L1432.28,762.05 C1420.26,736.56 1396.67,719.23 1369.53,719.23 Z" id="Stroke-93" stroke="#363736" stroke-width="8.74"></path>
                        <path d="M757.183,692.13 C723.915,692.13 696.864,722.51 696.142,760.3 L818.224,760.3 C817.503,722.51 790.451,692.13 757.183,692.13" id="Fill-95" fill="#46AA68"></path>
                        <path d="M757.183,692.13 C723.915,692.13 696.864,722.51 696.142,760.3 L818.224,760.3 C817.503,722.51 790.451,692.13 757.183,692.13 Z" id="Stroke-96" stroke="#363736" stroke-width="8.74"></path>
                        <path d="M304.682,702.62 C276.533,702.62 253.643,728.33 253.032,760.3 L356.333,760.3 C355.722,728.33 332.832,702.62 304.682,702.62" id="Fill-98" fill="#6CBB7F"></path>
                        <path d="M304.682,702.62 C276.533,702.62 253.643,728.33 253.032,760.3 L356.333,760.3 C355.722,728.33 332.832,702.62 304.682,702.62 Z" id="Stroke-99" stroke="#363736" stroke-width="8.74"></path>
                        <path d="M534.862,315.008 L446.589,315.008 C437.456,315.008 429.984,307.535 429.984,298.402 C429.984,289.269 437.456,281.797 446.589,281.797 L534.862,281.797 C543.995,281.797 551.467,289.269 551.467,298.402 C551.467,307.535 543.995,315.008 534.862,315.008" id="Fill-101" fill="#F3CD86"></path>
                        <path d="M699.608,248.148 L611.336,248.148 C602.202,248.148 594.73,240.676 594.73,231.543 L594.73,231.542 C594.73,222.41 602.202,214.937 611.336,214.937 L699.608,214.937 C708.741,214.937 716.213,222.41 716.213,231.542 L716.213,231.543 C716.213,240.676 708.741,248.148 699.608,248.148" id="Fill-102" fill="#F3CD86"></path>
                        <path d="M1003.99,501.603 L985.165,501.603 C978.565,501.603 973.165,496.204 973.165,489.603 L973.165,486.51 C973.165,479.91 978.565,474.51 985.165,474.51 L1003.99,474.51 C1010.59,474.51 1015.99,479.91 1015.99,486.51 L1015.99,489.603 C1015.99,496.204 1010.59,501.603 1003.99,501.603" id="Fill-103" fill="#7E7F7F"></path>
                        <path d="M1003.99,501.603 L985.165,501.603 C978.565,501.603 973.165,496.204 973.165,489.603 L973.165,486.51 C973.165,479.91 978.565,474.51 985.165,474.51 L1003.99,474.51 C1010.59,474.51 1015.99,479.91 1015.99,486.51 L1015.99,489.603 C1015.99,496.204 1010.59,501.603 1003.99,501.603 Z" id="Stroke-104" stroke="#383938" stroke-width="9.543"></path>
                        <path d="M1040.96,496.924 L1000.64,499.855 C995.801,499.855 991.843,495.897 991.843,491.059 L991.843,485.929 C991.843,481.091 995.801,477.132 1000.64,477.132 L1040.96,479.331 C1045.79,479.331 1049.75,483.289 1049.75,488.127 C1049.75,492.966 1045.79,496.924 1040.96,496.924" id="Fill-105" fill="#E5E4DF"></path>
                        <path d="M1040.96,496.924 L1000.64,499.855 C995.801,499.855 991.843,495.897 991.843,491.059 L991.843,485.929 C991.843,481.091 995.801,477.132 1000.64,477.132 L1040.96,479.331 C1045.79,479.331 1049.75,483.289 1049.75,488.127 C1049.75,492.966 1045.79,496.924 1040.96,496.924 Z" id="Stroke-106" stroke="#383938" stroke-width="7.33"></path>
                        <polyline id="Fill-107" fill="#BE8244" points="1164.57 332.925 1229.24 574.144 1164.57 574.144 1164.57 332.925"></polyline>
                        <path d="M508.149,370.373 C504.796,364.329 498.353,360.236 490.952,360.236 L361.586,360.236 C350.731,360.236 341.93,369.037 341.93,379.893 L341.93,528.916 L510.609,528.916 L510.609,379.893 C510.609,376.438 509.714,373.193 508.149,370.373" id="Fill-108" fill="#5E9DC9"></path>
                        <path d="M508.149,370.373 C504.796,364.329 498.353,360.236 490.952,360.236 L361.586,360.236 C350.731,360.236 341.93,369.037 341.93,379.893 L341.93,528.916 L510.609,528.916 L510.609,379.893 C510.609,376.438 509.714,373.193 508.149,370.373 Z" id="Stroke-109" stroke="#383938" stroke-width="8.74"></path>
                        <polyline id="Fill-110" fill="#EEA4A3" points="497.934 726.19 504.726 756.95 550.173 756.95 556.145 727.49 497.934 726.19"></polyline>
                        <polygon id="Stroke-111" stroke="#383938" stroke-width="4.37" points="497.934 726.19 504.726 756.95 550.173 756.95 556.145 727.49"></polygon>
                        <polyline id="Fill-113" fill="#C07C7E" points="541.433 725.04 541.433 725.04 541.287 725.3 535.315 754.76 548.425 754.76 554.397 725.3 541.433 725.04"></polyline>
                        <path d="M488.734,363.216 L364.912,363.216 C354.521,363.216 346.098,371.64 346.098,382.03 L346.098,502.897 L505.195,372.917 C501.985,367.133 495.819,363.216 488.734,363.216" id="Fill-114" fill="#83BDDC"></path>
                        <line x1="252.385" y1="100.621" x2="397.751" y2="100.621" id="Fill-115" fill="#765835"></line>
                        <line x1="252.385" y1="100.621" x2="397.751" y2="100.621" id="Stroke-116" stroke="#232423" stroke-width="8.74"></line>
                        <line x1="253.259" y1="148.253" x2="398.625" y2="148.253" id="Fill-117" fill="#765835"></line>
                        <line x1="253.259" y1="148.253" x2="398.625" y2="148.253" id="Stroke-118" stroke="#232423" stroke-width="8.74"></line>
                        <g id="编组" transform="translate(0.000000, 761.000000)">
                            <mask id="mask-4" fill="white">
                                <use xlink:href="#path-3"></use>
                            </mask>
                            <g id="Clip-120"></g>
                            <line x1="0" y1="1.19" x2="1652.7" y2="1.19" id="Fill-119" fill="#EFB06A" mask="url(#mask-4)"></line>
                            <line x1="0" y1="1.19" x2="1652.7" y2="1.19" id="Stroke-121" stroke="#383938" stroke-width="9.614" mask="url(#mask-4)"></line>
                        </g>
                        <path d="M490.822,712.37 L562.949,712.37 C565.782,712.37 567.67,715.3 566.504,717.88 L561.098,729.85 L492.053,729.85 L487.201,717.72 C486.176,715.16 488.063,712.37 490.822,712.37" id="Fill-129" fill="#EEA4A3"></path>
                        <path d="M490.822,712.37 L562.949,712.37 C565.782,712.37 567.67,715.3 566.504,717.88 L561.098,729.85 L492.053,729.85 L487.201,717.72 C486.176,715.16 488.063,712.37 490.822,712.37 Z" id="Stroke-130" stroke="#383938" stroke-width="4.37"></path>
                        <path d="M396.15,147.342 L252.346,147.342 C245.746,147.342 240.346,141.942 240.346,135.342 L240.346,104.281 C240.346,97.681 245.746,92.281 252.346,92.281 L396.15,92.281 C402.751,92.281 408.15,97.681 408.15,104.281 L408.15,135.342 C408.15,141.942 402.751,147.342 396.15,147.342" id="Fill-131" fill="#B7B8B6"></path>
                        <path d="M396.15,147.342 L252.346,147.342 C245.746,147.342 240.346,141.942 240.346,135.342 L240.346,104.281 C240.346,97.681 245.746,92.281 252.346,92.281 L396.15,92.281 C402.751,92.281 408.15,97.681 408.15,104.281 L408.15,135.342 C408.15,141.942 402.751,147.342 396.15,147.342 Z" id="Stroke-132" stroke="#232423" stroke-width="8.74"></path>
                        <path d="M506.911,711.06 C506.219,704.49 506.494,696.97 503.492,691.03 C502.683,689.43 501.874,687.83 501.065,686.22 C500.665,685.43 500.26,684.63 499.697,683.95 C499.145,683.279 498.455,682.738 497.772,682.203 C495.229,680.21 492.707,678.185 490.14,676.222 C488.694,675.114 487.437,673.771 485.996,672.65 C489.199,672.373 492.306,671.451 495.459,670.823 C500.863,669.746 506.796,670.216 511.619,673.107 C515.185,675.244 516.398,678.642 518.981,681.539 C523.137,673.128 517.88,663.033 522.548,654.429 C524.573,650.696 527.981,648.908 531.764,647.335 C535.037,645.974 538.386,644.926 541.763,643.855 C540.228,647.254 537.43,649.98 536.021,653.433 C534.361,657.499 534.743,662.301 534.538,666.608 C534.295,671.691 534.053,676.774 533.811,681.857 C533.697,684.24 533.537,687.14 534.775,689.3 C535.241,690.11 536.069,690.78 537.004,690.79 C539.016,690.81 541.916,688.73 543.073,687.25 C544.838,684.98 544.807,681.839 545.794,679.142 C547.876,673.462 553.175,669.263 559.19,668.88 C561.378,668.74 564.024,668.696 566.132,669.299 C565.753,670.986 564.513,672.766 563.72,674.353 C562.24,677.311 561.272,680.503 559.799,683.456 C558.371,686.32 556.721,689.12 555.304,692.01 C552.501,697.74 550.634,704.09 547.669,709.69 C546.848,711.24 546.262,711.06 544.633,711.06 C543.451,711.06 542.269,711.06 541.087,711.06 C534.094,711.06 527.102,711.06 520.109,711.06 C515.71,711.06 511.31,711.06 506.911,711.06" id="Fill-137" fill="#5BB574"></path>
                        <path d="M506.911,711.06 C506.219,704.49 506.494,696.97 503.492,691.03 C502.683,689.43 501.874,687.83 501.065,686.22 C500.665,685.43 500.26,684.63 499.697,683.95 C499.145,683.279 498.455,682.738 497.772,682.203 C495.229,680.21 492.707,678.185 490.14,676.222 C488.694,675.114 487.437,673.771 485.996,672.65 C489.199,672.373 492.306,671.451 495.459,670.823 C500.863,669.746 506.796,670.216 511.619,673.107 C515.185,675.244 516.398,678.642 518.981,681.539 C523.137,673.128 517.88,663.033 522.548,654.429 C524.573,650.696 527.981,648.908 531.764,647.335 C535.037,645.974 538.386,644.926 541.763,643.855 C540.228,647.254 537.43,649.98 536.021,653.433 C534.361,657.499 534.743,662.301 534.538,666.608 C534.295,671.691 534.053,676.774 533.811,681.857 C533.697,684.24 533.537,687.14 534.775,689.3 C535.241,690.11 536.069,690.78 537.004,690.79 C539.016,690.81 541.916,688.73 543.073,687.25 C544.838,684.98 544.807,681.839 545.794,679.142 C547.876,673.462 553.175,669.263 559.19,668.88 C561.378,668.74 564.024,668.696 566.132,669.299 C565.753,670.986 564.513,672.766 563.72,674.353 C562.24,677.311 561.272,680.503 559.799,683.456 C558.371,686.32 556.721,689.12 555.304,692.01 C552.501,697.74 550.634,704.09 547.669,709.69 C546.848,711.24 546.262,711.06 544.633,711.06 C543.451,711.06 542.269,711.06 541.087,711.06 C534.094,711.06 527.102,711.06 520.109,711.06 C515.71,711.06 511.31,711.06 506.911,711.06 Z" id="Stroke-138" stroke="#383938" stroke-width="3.496"></path>
                    </g>
                    <g id="卡通房子备份-2" transform="translate(3358.000000, 0.000000)">
                        <path d="M1223.11,604.733 C1136.42,604.733 1065.94,674.454 1064.06,761.18 L1382.16,761.18 C1380.28,674.454 1309.79,604.733 1223.11,604.733" id="Fill-1" fill="#428754"></path>
                        <path d="M1223.11,604.733 C1136.42,604.733 1065.94,674.454 1064.06,761.18 L1382.16,761.18 C1380.28,674.454 1309.79,604.733 1223.11,604.733 Z" id="Stroke-2" stroke="#363736" stroke-width="8.74"></path>
                        <path d="M1213.27,648.432 C1149.57,648.432 1097.78,698.29 1096.4,760.3 L1330.14,760.3 C1328.76,698.29 1276.96,648.432 1213.27,648.432" id="Fill-4" fill="#3B7144"></path>
                        <path d="M1213.27,648.432 C1149.57,648.432 1097.78,698.29 1096.4,760.3 L1330.14,760.3 C1328.76,698.29 1276.96,648.432 1213.27,648.432 Z" id="Stroke-5" stroke="#363736" stroke-width="8.844"></path>
                        <path d="M1188.7,690.38 C1135.16,690.38 1091.63,722.13 1090.47,761.61 L1286.92,761.61 C1285.76,722.13 1242.23,690.38 1188.7,690.38" id="Fill-7" fill="#2C4E2E"></path>
                        <path d="M1188.7,690.38 C1135.16,690.38 1091.63,722.13 1090.47,761.61 L1286.92,761.61 C1285.76,722.13 1242.23,690.38 1188.7,690.38 Z" id="Stroke-8" stroke="#363736" stroke-width="8.387"></path>
                        <path d="M387.596,61.99 L263.49,61.99 C257.722,61.99 253.002,66.709 253.002,72.477 L253.002,257.762 C253.002,263.53 257.722,268.25 263.49,268.25 L387.596,268.25 C393.364,268.25 398.084,263.53 398.084,257.762 L398.084,72.477 C398.084,66.709 393.364,61.99 387.596,61.99" id="Fill-10" fill="#765835"></path>
                        <path d="M387.596,61.99 L263.49,61.99 C257.722,61.99 253.002,66.709 253.002,72.477 L253.002,257.762 C253.002,263.53 257.722,268.25 263.49,268.25 L387.596,268.25 C393.364,268.25 398.084,263.53 398.084,257.762 L398.084,72.477 C398.084,66.709 393.364,61.99 387.596,61.99 Z" id="Stroke-11" stroke="#232423" stroke-width="8.74"></path>
                        <path d="M354.384,242.03 L354.384,66.36 L266.986,66.36 C261.217,66.36 256.498,71.079 256.498,76.848 L256.498,252.518 L343.897,252.518 C349.665,252.518 354.384,247.799 354.384,242.03" id="Fill-12" fill="#A57351"></path>
                        <line x1="251.511" y1="195.885" x2="396.877" y2="195.885" id="Fill-13" fill="#765835"></line>
                        <line x1="251.511" y1="195.885" x2="396.877" y2="195.885" id="Stroke-14" stroke="#232423" stroke-width="8.74"></line>
                        <polyline id="Fill-15" fill="#44D7B6" points="1233.61 760.3 239.018 760.3 239.018 282.234 728.449 48.006 1233.61 282.234 1233.61 760.3"></polyline>
                        <polygon id="Stroke-16" stroke="#383938" stroke-width="9.614" points="1233.61 760.3 239.018 760.3 239.018 282.234 728.449 48.006 1233.61 282.234"></polygon>
                        <path d="M988.897,408.088 L900.624,408.088 C891.491,408.088 884.019,400.615 884.019,391.481 C884.019,382.348 891.491,374.876 900.624,374.876 L988.897,374.876 C998.029,374.876 1005.5,382.348 1005.5,391.481 C1005.5,400.615 998.029,408.088 988.897,408.088" id="Fill-18" fill="#58EFCD"></path>
                        <path d="M426.503,676.4 C387.69,676.4 356.13,711.84 355.288,755.93 L497.717,755.93 C496.876,711.84 465.315,676.4 426.503,676.4" id="Fill-19" fill="#2BBA9A"></path>
                        <path d="M327.743,647.558 C276.069,647.558 234.052,695.47 232.931,755.06 L422.555,755.06 C421.434,695.47 379.416,647.558 327.743,647.558" id="Fill-20" fill="#2BBA9A"></path>
                        <path d="M773.912,697.38 C736.766,697.38 706.562,723.47 705.756,755.93 L842.067,755.93 C841.261,723.47 811.057,697.38 773.912,697.38" id="Fill-21" fill="#2BBA9A"></path>
                        <path d="M897.128,167.742 L808.856,167.742 C799.723,167.742 792.25,160.269 792.25,151.136 C792.25,142.003 799.723,134.53 808.856,134.53 L897.128,134.53 C906.261,134.53 913.733,142.003 913.733,151.136 C913.733,160.269 906.261,167.742 897.128,167.742" id="Fill-22" fill="#58EFCD"></path>
                        <polygon id="Fill-23" fill="#2BBA9A" points="931.214 611.725 1160.2 611.725 1160.2 336.421 931.214 336.421"></polygon>
                        <polygon id="Stroke-24" stroke="#383938" stroke-width="9.614" points="931.214 611.725 1160.2 611.725 1160.2 336.421 931.214 336.421"></polygon>
                        <path d="M1127.86,284.856 L1039.59,284.856 C1030.45,284.856 1022.98,277.383 1022.98,268.25 C1022.98,259.117 1030.45,251.644 1039.59,251.644 L1127.86,251.644 C1136.99,251.644 1144.47,259.117 1144.47,268.25 C1144.47,277.383 1136.99,284.856 1127.86,284.856" id="Fill-25" fill="#58EFCD"></path>
                        <path d="M732.819,60.242 L724.683,63.738 L242.514,301.433 L242.514,345.31 L716.091,111.85 C721.577,109.146 728.007,109.146 733.493,111.85 L1228.37,357.396 L1228.37,306.705 L732.819,60.242" id="Fill-26" fill="#2BBA9A"></path>
                        <path d="M1285.11,273.531 L731.893,0.811 L731.675,0.811 L178.459,273.531 C168.711,278.336 164.705,290.133 169.51,299.881 C174.315,309.628 186.113,313.635 195.86,308.829 L723.084,48.923 C728.569,46.219 735,46.219 740.485,48.923 L1267.71,308.829 C1277.46,313.635 1289.25,309.628 1294.06,299.881 C1298.86,290.133 1294.86,278.336 1285.11,273.531" id="Fill-27" fill="#F7B500"></path>
                        <path d="M1285.11,273.531 L731.893,0.811 L731.675,0.811 L178.459,273.531 C168.711,278.336 164.705,290.133 169.51,299.881 C174.315,309.628 186.113,313.635 195.86,308.829 L723.084,48.923 C728.569,46.219 735,46.219 740.485,48.923 L1267.71,308.829 C1277.46,313.635 1289.25,309.628 1294.06,299.881 C1298.86,290.133 1294.86,278.336 1285.11,273.531 Z" id="Stroke-28" stroke="#383938" stroke-width="8.74"></path>
                        <path d="M1285.11,311.986 L731.893,39.266 L731.675,39.266 L178.459,311.986 C168.711,316.791 164.705,328.589 169.51,338.336 C174.315,348.084 186.113,352.09 195.86,347.285 L723.084,87.379 C728.569,84.675 735,84.675 740.485,87.379 L1267.71,347.285 C1277.46,352.09 1289.25,348.084 1294.06,338.336 C1298.86,328.589 1294.86,316.791 1285.11,311.986" id="Fill-29" fill="#B2B3B1"></path>
                        <path d="M1285.11,311.986 L731.893,39.266 L731.675,39.266 L178.459,311.986 C168.711,316.791 164.705,328.589 169.51,338.336 C174.315,348.084 186.113,352.09 195.86,347.285 L723.084,87.379 C728.569,84.675 735,84.675 740.485,87.379 L1267.71,347.285 C1277.46,352.09 1289.25,348.084 1294.06,338.336 C1298.86,328.589 1294.86,316.791 1285.11,311.986 Z" id="Stroke-30" stroke="#383938" stroke-width="9.614"></path>
                        <polygon id="Fill-31" fill="#F3D988" points="1134.85 608.229 1235.36 608.229 1235.36 578.515 1134.85 578.515"></polygon>
                        <polygon id="Stroke-32" stroke="#383938" stroke-width="8.74" points="1134.85 608.229 1235.36 608.229 1235.36 578.515 1134.85 578.515"></polygon>
                        <polygon id="Fill-33" fill="#F3D988" points="859.547 607.355 953.063 607.355 953.063 577.64 859.547 577.64"></polygon>
                        <polygon id="Stroke-34" stroke="#383938" stroke-width="8.74" points="859.547 607.355 953.063 607.355 953.063 577.64 859.547 577.64"></polygon>
                        <polyline id="Fill-35" fill="#C2C3C0" points="1066.38 367.01 954.811 367.01 954.811 618.718 1135.73 618.718 1135.73 367.01 1066.38 367.01"></polyline>
                        <polygon id="Stroke-36" stroke="#383938" stroke-width="8.74" points="1066.38 367.01 954.811 367.01 954.811 618.718 1135.73 618.718 1135.73 367.01"></polygon>
                        <polyline id="Fill-37" fill="#E1E0DC" points="1050.99 373.128 960.929 373.128 960.929 487.93 1072.5 373.128 1050.99 373.128"></polyline>
                        <polyline id="Fill-38" fill="#3D2F21" points="904.994 605.607 904.994 759.43 863.043 759.43 863.043 760.3 946.071 760.3 946.071 605.607 904.994 605.607"></polyline>
                        <polygon id="Stroke-39" stroke="#383938" stroke-width="8.74" points="904.994 605.607 904.994 759.43 863.043 759.43 863.043 760.3 946.071 760.3 946.071 605.607"></polygon>
                        <polygon id="Fill-41" fill="#A5755C" points="863.043 759.43 904.994 759.43 904.994 605.607 863.043 605.607"></polygon>
                        <polygon id="Stroke-42" stroke="#383938" stroke-width="8.74" points="863.043 759.43 904.994 759.43 904.994 605.607 863.043 605.607"></polygon>
                        <polygon id="Fill-44" fill="#3D2F21" points="1145.34 760.3 1228.37 760.3 1228.37 605.607 1145.34 605.607"></polygon>
                        <polygon id="Stroke-45" stroke="#383938" stroke-width="8.74" points="1145.34 760.3 1228.37 760.3 1228.37 605.607 1145.34 605.607"></polygon>
                        <polygon id="Fill-47" fill="#866249" points="1146.21 760.3 1188.17 760.3 1188.17 606.481 1146.21 606.481"></polygon>
                        <polygon id="Stroke-48" stroke="#383938" stroke-width="8.74" points="1146.21 760.3 1188.17 760.3 1188.17 606.481 1146.21 606.481"></polygon>
                        <polygon id="Fill-50" fill="#959897" points="947.819 641.441 1145.34 641.441 1145.34 611.725 947.819 611.725"></polygon>
                        <polygon id="Stroke-51" stroke="#383938" stroke-width="8.74" points="947.819 641.441 1145.34 641.441 1145.34 611.725 947.819 611.725"></polygon>
                        <polygon id="Fill-52" fill="#747474" points="940.827 671.156 1152.33 671.156 1152.33 641.441 940.827 641.441"></polygon>
                        <polygon id="Stroke-53" stroke="#383938" stroke-width="8.74" points="940.827 671.156 1152.33 671.156 1152.33 641.441 940.827 641.441"></polygon>
                        <polygon id="Fill-54" fill="#5B5C5B" points="932.961 700.87 1156.7 700.87 1156.7 671.156 932.961 671.156"></polygon>
                        <polygon id="Stroke-55" stroke="#383938" stroke-width="8.74" points="932.961 700.87 1156.7 700.87 1156.7 671.156 932.961 671.156"></polygon>
                        <path d="M370.116,514.714 L281.843,514.714 C272.711,514.714 265.238,507.241 265.238,498.107 C265.238,488.974 272.711,481.502 281.843,481.502 L370.116,481.502 C379.249,481.502 386.722,488.974 386.722,498.107 C386.722,507.241 379.249,514.714 370.116,514.714" id="Fill-56" fill="#58EFCD"></path>
                        <polygon id="Fill-57" fill="#4A4B49" points="928.592 730.59 1164.57 730.59 1164.57 700.87 928.592 700.87"></polygon>
                        <polygon id="Stroke-58" stroke="#383938" stroke-width="8.74" points="928.592 730.59 1164.57 730.59 1164.57 700.87 928.592 700.87"></polygon>
                        <path d="M446.152,559.286 L446.152,330.303 L554.628,330.303 C570.018,330.303 582.494,342.778 582.494,358.168 L582.494,559.286 L446.152,559.286 Z" id="Fill-60" fill="#2BBA9A"></path>
                        <polygon id="Fill-61" fill="#3E3F3E" points="918.978 760.3 1174.18 760.3 1174.18 730.59 918.978 730.59"></polygon>
                        <polygon id="Stroke-62" stroke="#383938" stroke-width="8.74" points="918.978 760.3 1174.18 760.3 1174.18 730.59 918.978 730.59"></polygon>
                        <path d="M536.391,554.698 L316.148,554.698 L316.148,373.295 C316.148,351.844 333.537,334.454 354.988,334.454 L497.551,334.454 C519.002,334.454 536.391,351.844 536.391,373.295 L536.391,554.698" id="Fill-64" fill="#FFFFFE"></path>
                        <path d="M536.391,554.698 L316.148,554.698 L316.148,373.295 C316.148,351.844 333.537,334.454 354.988,334.454 L497.551,334.454 C519.002,334.454 536.391,351.844 536.391,373.295 L536.391,554.698 Z" id="Stroke-65" stroke="#383938" stroke-width="8.74"></path>
                        <polygon id="Fill-66" fill="#2BBA9A" points="347.392 559.286 610.461 559.286 610.461 524.327 347.392 524.327"></polygon>
                        <polygon id="Fill-67" fill="#FFFFFE" points="294.953 554.917 558.023 554.917 558.023 528.697 294.953 528.697"></polygon>
                        <polygon id="Stroke-68" stroke="#383938" stroke-width="8.74" points="294.953 554.917 558.023 554.917 558.023 528.697 294.953 528.697"></polygon>
                        <path d="M718.836,440.425 L630.563,440.425 C621.43,440.425 613.958,432.952 613.958,423.819 C613.958,414.685 621.43,407.214 630.563,407.214 L718.836,407.214 C727.968,407.214 735.441,414.685 735.441,423.819 C735.441,432.952 727.968,440.425 718.836,440.425" id="Fill-69" fill="#58EFCD"></path>
                        <path d="M592.982,677.274 L504.71,677.274 C495.576,677.274 488.104,669.802 488.104,660.669 C488.104,651.535 495.576,644.063 504.71,644.063 L592.982,644.063 C602.115,644.063 609.587,651.535 609.587,660.669 C609.587,669.802 602.115,677.274 592.982,677.274" id="Fill-70" fill="#58EFCD"></path>
                        <path d="M579.555,711.94 L564.681,711.94 C567.409,706.54 569.24,700.53 571.909,695.07 C573.327,692.18 574.977,689.38 576.405,686.52 C577.878,683.561 578.846,680.371 580.325,677.413 C581.119,675.826 582.359,674.045 582.738,672.357 C580.629,671.755 577.984,671.799 575.796,671.938 C569.781,672.321 564.481,676.52 562.4,682.201 C561.412,684.9 561.444,688.04 559.679,690.31 C558.522,691.79 555.621,693.87 553.61,693.85 C552.675,693.83 551.847,693.17 551.381,692.36 C550.143,690.2 550.303,687.29 550.416,684.92 C550.658,679.833 550.901,674.75 551.143,669.667 C551.349,665.359 550.967,660.557 552.626,656.492 C554.035,653.039 556.833,650.312 558.369,646.914 C554.992,647.984 551.643,649.033 548.37,650.394 C544.587,651.967 541.179,653.756 539.154,657.487 C534.486,666.093 539.743,676.186 535.586,684.6 C533.004,681.701 531.791,678.304 528.225,676.166 C523.402,673.275 517.468,672.805 512.065,673.882 C508.912,674.511 505.805,675.431 502.602,675.709 C504.043,676.831 505.3,678.174 506.745,679.28 C509.312,681.244 511.834,683.268 514.378,685.26 C515.061,685.8 515.75,686.34 516.302,687.01 C516.866,687.69 517.271,688.49 517.67,689.28 C518.479,690.88 519.288,692.49 520.097,694.09 C522.772,699.38 522.847,705.93 523.32,711.94 L507.428,711.94 C504.669,711.94 502.781,714.72 503.806,717.29 L508.659,729.41 L515.348,729.41 L521.331,756.51 L566.778,756.51 L572.272,729.41 L577.703,729.41 L583.11,717.44 C584.275,714.86 582.388,711.94 579.555,711.94" id="Fill-71" fill="#2BBA9A"></path>
                        <path d="M864.791,544.429 L776.518,544.429 C767.385,544.429 759.913,536.956 759.913,527.823 C759.913,518.69 767.385,511.218 776.518,511.218 L864.791,511.218 C873.924,511.218 881.397,518.69 881.397,527.823 C881.397,536.956 873.924,544.429 864.791,544.429" id="Fill-72" fill="#58EFCD"></path>
                        <polygon id="Fill-73" fill="#2BBA9A" points="709.886 561.034 846.228 561.034 846.228 332.051 709.886 332.051"></polygon>
                        <polygon id="Fill-74" fill="#FFFFFE" points="669.018 556.665 805.36 556.665 805.36 336.421 669.018 336.421"></polygon>
                        <polygon id="Stroke-75" stroke="#383938" stroke-width="8.74" points="669.018 556.665 805.36 556.665 805.36 336.421 669.018 336.421"></polygon>
                        <polygon id="Fill-76" fill="#5E9DC9" points="693.037 531.617 781.341 531.617 781.341 359.72 693.037 359.72"></polygon>
                        <polygon id="Stroke-77" stroke="#383938" stroke-width="7.921" points="693.037 531.617 781.341 531.617 781.341 359.72 693.037 359.72"></polygon>
                        <polyline id="Fill-78" fill="#83BDDC" points="696.975 363.607 696.975 453.387 777.875 363.607 696.975 363.607"></polyline>
                        <polyline id="Fill-79" fill="#418EC0" points="776.679 438.708 696.975 527.16 776.679 527.16 776.679 438.708"></polyline>
                        <path d="M264.297,644.937 C205.963,644.937 158.529,696.35 157.264,760.3 L371.33,760.3 C370.064,696.35 322.63,644.937 264.297,644.937" id="Fill-80" fill="#428754"></path>
                        <path d="M264.297,644.937 C205.963,644.937 158.529,696.35 157.264,760.3 L371.33,760.3 C370.064,696.35 322.63,644.937 264.297,644.937 Z" id="Stroke-81" stroke="#363736" stroke-width="8.74"></path>
                        <path d="M270.497,680.752 C230.493,680.752 197.965,716.01 197.097,759.87 L343.897,759.87 C343.028,716.01 310.5,680.752 270.497,680.752" id="Fill-83" fill="#D7BD5B"></path>
                        <path d="M270.497,680.752 C230.493,680.752 197.965,716.01 197.097,759.87 L343.897,759.87 C343.028,716.01 310.5,680.752 270.497,680.752 Z" id="Stroke-84" stroke="#363736" stroke-width="8.74"></path>
                        <path d="M394.166,679.896 C355.353,679.896 323.793,715.34 322.951,759.43 L465.38,759.43 C464.538,715.34 432.978,679.896 394.166,679.896" id="Fill-86" fill="#46AA68"></path>
                        <path d="M394.166,679.896 C355.353,679.896 323.793,715.34 322.951,759.43 L465.38,759.43 C464.538,715.34 432.978,679.896 394.166,679.896 Z" id="Stroke-87" stroke="#363736" stroke-width="8.74"></path>
                        <path d="M1369.53,719.23 C1396.67,719.23 1420.26,736.56 1432.28,762.05 L1448.61,762.05 C1447.77,717.96 1416.21,682.518 1377.4,682.518 C1338.59,682.518 1307.02,717.96 1306.18,762.05 L1306.78,762.05 C1318.8,736.56 1342.39,719.23 1369.53,719.23" id="Fill-89" fill="#46AA68"></path>
                        <path d="M1369.53,719.23 C1396.67,719.23 1420.26,736.56 1432.28,762.05 L1448.61,762.05 C1447.77,717.96 1416.21,682.518 1377.4,682.518 C1338.59,682.518 1307.02,717.96 1306.18,762.05 L1306.78,762.05 C1318.8,736.56 1342.39,719.23 1369.53,719.23 Z" id="Stroke-90" stroke="#363736" stroke-width="8.74"></path>
                        <path d="M1369.53,719.23 C1342.39,719.23 1318.8,736.56 1306.78,762.05 L1432.28,762.05 C1420.26,736.56 1396.67,719.23 1369.53,719.23" id="Fill-92" fill="#D7BD5B"></path>
                        <path d="M1369.53,719.23 C1342.39,719.23 1318.8,736.56 1306.78,762.05 L1432.28,762.05 C1420.26,736.56 1396.67,719.23 1369.53,719.23 Z" id="Stroke-93" stroke="#363736" stroke-width="8.74"></path>
                        <path d="M757.183,692.13 C723.915,692.13 696.864,722.51 696.142,760.3 L818.224,760.3 C817.503,722.51 790.451,692.13 757.183,692.13" id="Fill-95" fill="#46AA68"></path>
                        <path d="M757.183,692.13 C723.915,692.13 696.864,722.51 696.142,760.3 L818.224,760.3 C817.503,722.51 790.451,692.13 757.183,692.13 Z" id="Stroke-96" stroke="#363736" stroke-width="8.74"></path>
                        <path d="M304.682,702.62 C276.533,702.62 253.643,728.33 253.032,760.3 L356.333,760.3 C355.722,728.33 332.832,702.62 304.682,702.62" id="Fill-98" fill="#6CBB7F"></path>
                        <path d="M304.682,702.62 C276.533,702.62 253.643,728.33 253.032,760.3 L356.333,760.3 C355.722,728.33 332.832,702.62 304.682,702.62 Z" id="Stroke-99" stroke="#363736" stroke-width="8.74"></path>
                        <path d="M534.862,315.008 L446.589,315.008 C437.456,315.008 429.984,307.535 429.984,298.402 C429.984,289.269 437.456,281.797 446.589,281.797 L534.862,281.797 C543.995,281.797 551.467,289.269 551.467,298.402 C551.467,307.535 543.995,315.008 534.862,315.008" id="Fill-101" fill="#58EFCD"></path>
                        <path d="M699.608,248.148 L611.336,248.148 C602.202,248.148 594.73,240.676 594.73,231.543 L594.73,231.542 C594.73,222.41 602.202,214.937 611.336,214.937 L699.608,214.937 C708.741,214.937 716.213,222.41 716.213,231.542 L716.213,231.543 C716.213,240.676 708.741,248.148 699.608,248.148" id="Fill-102" fill="#58EFCD"></path>
                        <path d="M1003.99,501.603 L985.165,501.603 C978.565,501.603 973.165,496.204 973.165,489.603 L973.165,486.51 C973.165,479.91 978.565,474.51 985.165,474.51 L1003.99,474.51 C1010.59,474.51 1015.99,479.91 1015.99,486.51 L1015.99,489.603 C1015.99,496.204 1010.59,501.603 1003.99,501.603" id="Fill-103" fill="#7E7F7F"></path>
                        <path d="M1003.99,501.603 L985.165,501.603 C978.565,501.603 973.165,496.204 973.165,489.603 L973.165,486.51 C973.165,479.91 978.565,474.51 985.165,474.51 L1003.99,474.51 C1010.59,474.51 1015.99,479.91 1015.99,486.51 L1015.99,489.603 C1015.99,496.204 1010.59,501.603 1003.99,501.603 Z" id="Stroke-104" stroke="#383938" stroke-width="9.543"></path>
                        <path d="M1040.96,496.924 L1000.64,499.855 C995.801,499.855 991.843,495.897 991.843,491.059 L991.843,485.929 C991.843,481.091 995.801,477.132 1000.64,477.132 L1040.96,479.331 C1045.79,479.331 1049.75,483.289 1049.75,488.127 C1049.75,492.966 1045.79,496.924 1040.96,496.924" id="Fill-105" fill="#E5E4DF"></path>
                        <path d="M1040.96,496.924 L1000.64,499.855 C995.801,499.855 991.843,495.897 991.843,491.059 L991.843,485.929 C991.843,481.091 995.801,477.132 1000.64,477.132 L1040.96,479.331 C1045.79,479.331 1049.75,483.289 1049.75,488.127 C1049.75,492.966 1045.79,496.924 1040.96,496.924 Z" id="Stroke-106" stroke="#383938" stroke-width="7.33"></path>
                        <polyline id="Fill-107" fill="#2BBA9A" points="1164.57 332.925 1229.24 574.144 1164.57 574.144 1164.57 332.925"></polyline>
                        <path d="M508.149,370.373 C504.796,364.329 498.353,360.236 490.952,360.236 L361.586,360.236 C350.731,360.236 341.93,369.037 341.93,379.893 L341.93,528.916 L510.609,528.916 L510.609,379.893 C510.609,376.438 509.714,373.193 508.149,370.373" id="Fill-108" fill="#5E9DC9"></path>
                        <path d="M508.149,370.373 C504.796,364.329 498.353,360.236 490.952,360.236 L361.586,360.236 C350.731,360.236 341.93,369.037 341.93,379.893 L341.93,528.916 L510.609,528.916 L510.609,379.893 C510.609,376.438 509.714,373.193 508.149,370.373 Z" id="Stroke-109" stroke="#383938" stroke-width="8.74"></path>
                        <polyline id="Fill-110" fill="#EEA4A3" points="497.934 726.19 504.726 756.95 550.173 756.95 556.145 727.49 497.934 726.19"></polyline>
                        <polygon id="Stroke-111" stroke="#383938" stroke-width="4.37" points="497.934 726.19 504.726 756.95 550.173 756.95 556.145 727.49"></polygon>
                        <polyline id="Fill-113" fill="#C07C7E" points="541.433 725.04 541.433 725.04 541.287 725.3 535.315 754.76 548.425 754.76 554.397 725.3 541.433 725.04"></polyline>
                        <path d="M488.734,363.216 L364.912,363.216 C354.521,363.216 346.098,371.64 346.098,382.03 L346.098,502.897 L505.195,372.917 C501.985,367.133 495.819,363.216 488.734,363.216" id="Fill-114" fill="#83BDDC"></path>
                        <line x1="252.385" y1="100.621" x2="397.751" y2="100.621" id="Fill-115" fill="#765835"></line>
                        <line x1="252.385" y1="100.621" x2="397.751" y2="100.621" id="Stroke-116" stroke="#232423" stroke-width="8.74"></line>
                        <line x1="253.259" y1="148.253" x2="398.625" y2="148.253" id="Fill-117" fill="#765835"></line>
                        <line x1="253.259" y1="148.253" x2="398.625" y2="148.253" id="Stroke-118" stroke="#232423" stroke-width="8.74"></line>
                        <g id="编组" transform="translate(0.000000, 761.000000)">
                            <mask id="mask-6" fill="white">
                                <use xlink:href="#path-5"></use>
                            </mask>
                            <g id="Clip-120"></g>
                            <line x1="0" y1="1.19" x2="1652.7" y2="1.19" id="Fill-119" fill="#EFB06A" mask="url(#mask-6)"></line>
                            <line x1="0" y1="1.19" x2="1652.7" y2="1.19" id="Stroke-121" stroke="#383938" stroke-width="9.614" mask="url(#mask-6)"></line>
                        </g>
                        <path d="M490.822,712.37 L562.949,712.37 C565.782,712.37 567.67,715.3 566.504,717.88 L561.098,729.85 L492.053,729.85 L487.201,717.72 C486.176,715.16 488.063,712.37 490.822,712.37" id="Fill-129" fill="#EEA4A3"></path>
                        <path d="M490.822,712.37 L562.949,712.37 C565.782,712.37 567.67,715.3 566.504,717.88 L561.098,729.85 L492.053,729.85 L487.201,717.72 C486.176,715.16 488.063,712.37 490.822,712.37 Z" id="Stroke-130" stroke="#383938" stroke-width="4.37"></path>
                        <path d="M396.15,147.342 L252.346,147.342 C245.746,147.342 240.346,141.942 240.346,135.342 L240.346,104.281 C240.346,97.681 245.746,92.281 252.346,92.281 L396.15,92.281 C402.751,92.281 408.15,97.681 408.15,104.281 L408.15,135.342 C408.15,141.942 402.751,147.342 396.15,147.342" id="Fill-131" fill="#B7B8B6"></path>
                        <path d="M396.15,147.342 L252.346,147.342 C245.746,147.342 240.346,141.942 240.346,135.342 L240.346,104.281 C240.346,97.681 245.746,92.281 252.346,92.281 L396.15,92.281 C402.751,92.281 408.15,97.681 408.15,104.281 L408.15,135.342 C408.15,141.942 402.751,147.342 396.15,147.342 Z" id="Stroke-132" stroke="#232423" stroke-width="8.74"></path>
                        <path d="M506.911,711.06 C506.219,704.49 506.494,696.97 503.492,691.03 C502.683,689.43 501.874,687.83 501.065,686.22 C500.665,685.43 500.26,684.63 499.697,683.95 C499.145,683.279 498.455,682.738 497.772,682.203 C495.229,680.21 492.707,678.185 490.14,676.222 C488.694,675.114 487.437,673.771 485.996,672.65 C489.199,672.373 492.306,671.451 495.459,670.823 C500.863,669.746 506.796,670.216 511.619,673.107 C515.185,675.244 516.398,678.642 518.981,681.539 C523.137,673.128 517.88,663.033 522.548,654.429 C524.573,650.696 527.981,648.908 531.764,647.335 C535.037,645.974 538.386,644.926 541.763,643.855 C540.228,647.254 537.43,649.98 536.021,653.433 C534.361,657.499 534.743,662.301 534.538,666.608 C534.295,671.691 534.053,676.774 533.811,681.857 C533.697,684.24 533.537,687.14 534.775,689.3 C535.241,690.11 536.069,690.78 537.004,690.79 C539.016,690.81 541.916,688.73 543.073,687.25 C544.838,684.98 544.807,681.839 545.794,679.142 C547.876,673.462 553.175,669.263 559.19,668.88 C561.378,668.74 564.024,668.696 566.132,669.299 C565.753,670.986 564.513,672.766 563.72,674.353 C562.24,677.311 561.272,680.503 559.799,683.456 C558.371,686.32 556.721,689.12 555.304,692.01 C552.501,697.74 550.634,704.09 547.669,709.69 C546.848,711.24 546.262,711.06 544.633,711.06 C543.451,711.06 542.269,711.06 541.087,711.06 C534.094,711.06 527.102,711.06 520.109,711.06 C515.71,711.06 511.31,711.06 506.911,711.06" id="Fill-137" fill="#5BB574"></path>
                        <path d="M506.911,711.06 C506.219,704.49 506.494,696.97 503.492,691.03 C502.683,689.43 501.874,687.83 501.065,686.22 C500.665,685.43 500.26,684.63 499.697,683.95 C499.145,683.279 498.455,682.738 497.772,682.203 C495.229,680.21 492.707,678.185 490.14,676.222 C488.694,675.114 487.437,673.771 485.996,672.65 C489.199,672.373 492.306,671.451 495.459,670.823 C500.863,669.746 506.796,670.216 511.619,673.107 C515.185,675.244 516.398,678.642 518.981,681.539 C523.137,673.128 517.88,663.033 522.548,654.429 C524.573,650.696 527.981,648.908 531.764,647.335 C535.037,645.974 538.386,644.926 541.763,643.855 C540.228,647.254 537.43,649.98 536.021,653.433 C534.361,657.499 534.743,662.301 534.538,666.608 C534.295,671.691 534.053,676.774 533.811,681.857 C533.697,684.24 533.537,687.14 534.775,689.3 C535.241,690.11 536.069,690.78 537.004,690.79 C539.016,690.81 541.916,688.73 543.073,687.25 C544.838,684.98 544.807,681.839 545.794,679.142 C547.876,673.462 553.175,669.263 559.19,668.88 C561.378,668.74 564.024,668.696 566.132,669.299 C565.753,670.986 564.513,672.766 563.72,674.353 C562.24,677.311 561.272,680.503 559.799,683.456 C558.371,686.32 556.721,689.12 555.304,692.01 C552.501,697.74 550.634,704.09 547.669,709.69 C546.848,711.24 546.262,711.06 544.633,711.06 C543.451,711.06 542.269,711.06 541.087,711.06 C534.094,711.06 527.102,711.06 520.109,711.06 C515.71,711.06 511.31,711.06 506.911,711.06 Z" id="Stroke-138" stroke="#383938" stroke-width="3.496"></path>
                    </g>
                    <text id="我的家" font-family="PingFangSC-Regular, PingFang SC" font-size="120" font-weight="normal" fill="#000000">
                        <tspan x="530" y="935">我的家</tspan>
                    </text>
                    <text id="你的家" font-family="PingFangSC-Regular, PingFang SC" font-size="120" font-weight="normal" fill="#000000">
                        <tspan x="2240" y="935">你的家</tspan>
                    </text>
                    <text id="她的家" font-family="PingFangSC-Regular, PingFang SC" font-size="120" font-weight="normal" fill="#000000">
                        <tspan x="3950" y="935">她的家</tspan>
                    </text>
                </g>
            </g>
        </g>
    </g>
</svg>